<svg width="208" height="208" viewBox="0 0 208 208" fill="none" xmlns="http://www.w3.org/2000/svg">
<path d="M88.6727 18.2848C96.6661 8.749 111.334 8.749 119.327 18.2848L122.967 22.6264C127.561 28.1078 134.734 30.7182 141.777 29.4727L147.355 28.4862C159.608 26.3194 170.844 35.7476 170.838 48.1906L170.835 53.8557C170.832 61.0081 174.648 67.618 180.844 71.1912L185.751 74.0213C196.53 80.2374 199.077 94.6823 191.075 104.21L187.431 108.548C182.831 114.025 181.505 121.541 183.955 128.261L185.895 133.584C190.157 145.274 182.823 157.977 170.568 160.131L164.988 161.112C157.944 162.351 152.097 167.257 149.654 173.979L147.719 179.304C143.469 190.998 129.686 196.015 118.913 189.788L114.009 186.953C107.816 183.374 100.184 183.374 93.9914 186.953L89.0866 189.788C78.3138 196.015 64.5307 190.998 60.2807 179.304L58.3458 173.979C55.9029 167.257 50.0561 162.351 43.0117 161.112L37.4321 160.131C25.1771 157.977 17.8433 145.274 22.1049 133.584L24.0451 128.261C26.4947 121.541 25.1694 114.025 20.5691 108.548L16.9255 104.21C8.92257 94.6823 11.4696 80.2374 22.2486 74.0213L27.1562 71.1912C33.3521 67.618 37.1684 61.0081 37.1648 53.8557L37.162 48.1906C37.1558 35.7476 48.3919 26.3194 60.6447 28.4862L66.2233 29.4727C73.2665 30.7182 80.4386 28.1078 85.0334 22.6264L88.6727 18.2848Z" fill="#3D52A0"/>
<path fill-rule="evenodd" clip-rule="evenodd" d="M153.207 70.809C155.597 73.2211 155.597 77.1318 153.207 79.5439L96.0875 137.191C93.6975 139.603 89.8225 139.603 87.4325 137.191L54.7925 104.25C52.4025 101.838 52.4025 97.927 54.7925 95.5149C57.1825 93.1029 61.0575 93.1029 63.4475 95.5149L91.76 124.089L144.553 70.809C146.943 68.397 150.817 68.397 153.207 70.809Z" fill="white"/>
</svg>
