<svg width="220" height="59" viewBox="0 0 220 59" fill="none" xmlns="http://www.w3.org/2000/svg">
<path d="M21.1 58.232C18.1227 58.232 15.3507 57.7187 12.784 56.692C10.2173 55.614 7.98433 54.1253 6.085 52.226C4.18567 50.2753 2.697 48.0167 1.619 45.45C0.592333 42.8833 0.0790001 40.0857 0.0790001 37.057C0.0790001 34.0283 0.592333 31.2307 1.619 28.664C2.697 26.0973 4.18567 23.8643 6.085 21.965C7.98433 20.0657 10.2173 18.6027 12.784 17.576C15.3507 16.498 18.1227 15.959 21.1 15.959C24.1287 15.959 26.9007 16.498 29.416 17.576C31.9827 18.6027 34.2157 20.0657 36.115 21.965C38.0143 23.8643 39.4773 26.0973 40.504 28.664C41.582 31.2307 42.121 34.0283 42.121 37.057C42.121 40.0857 41.582 42.8833 40.504 45.45C39.4773 48.0167 38.0143 50.2753 36.115 52.226C34.2157 54.1253 31.9827 55.614 29.416 56.692C26.9007 57.7187 24.1287 58.232 21.1 58.232ZM21.1 46.759C23.6153 46.759 25.6173 45.8607 27.106 44.064C28.646 42.216 29.416 39.8803 29.416 37.057C29.416 34.1823 28.646 31.8723 27.106 30.127C25.6173 28.3303 23.6153 27.432 21.1 27.432C18.5847 27.432 16.557 28.3303 15.017 30.127C13.5283 31.8723 12.784 34.1823 12.784 37.057C12.784 39.8803 13.5283 42.216 15.017 44.064C16.557 45.8607 18.5847 46.759 21.1 46.759ZM50.656 57C48.3973 50.4293 46.0873 43.8073 43.726 37.134C41.416 30.4093 39.1316 23.7617 36.873 17.191C39.0803 17.191 41.2876 17.191 43.495 17.191C45.7536 17.191 47.9866 17.191 50.194 17.191C51.5286 21.2463 52.8633 25.3273 54.198 29.434C55.584 33.4893 56.9186 37.5447 58.202 41.6C59.5366 37.5447 60.8713 33.4893 62.206 29.434C63.5406 25.3273 64.8496 21.2463 66.133 17.191C68.289 17.191 70.4706 17.191 72.678 17.191C74.8853 17.191 77.067 17.191 79.223 17.191C76.9643 23.7617 74.6543 30.4093 72.293 37.134C69.983 43.8073 67.6986 50.4293 65.44 57C63.0273 57 60.5633 57 58.048 57C55.5326 57 53.0686 57 50.656 57ZM110.429 55.152C106.887 56.6407 103.371 57.5647 99.88 57.924C96.3894 58.2833 93.0784 58.078 89.947 57.308C86.867 56.5893 84.1207 55.3317 81.708 53.535C79.2954 51.7383 77.396 49.454 76.01 46.682C74.6754 43.91 74.008 40.7017 74.008 37.057C74.008 34.0283 74.4957 31.2563 75.471 28.741C76.4977 26.1743 77.935 23.9413 79.783 22.042C81.631 20.0913 83.8127 18.6027 86.328 17.576C88.8434 16.498 91.5897 15.959 94.567 15.959C97.2364 15.959 99.649 16.3953 101.805 17.268C103.961 18.1407 105.835 19.3727 107.426 20.964C109.017 22.504 110.301 24.352 111.276 26.508C112.251 28.664 112.867 31.0253 113.124 33.592C113.381 36.1587 113.227 38.8793 112.662 41.754C108.453 41.754 104.218 41.754 99.957 41.754C95.6964 41.754 91.4614 41.754 87.252 41.754C88.2274 43.7047 89.8444 45.0907 92.103 45.912C94.413 46.7333 97.1337 46.99 100.265 46.682C103.448 46.374 106.836 45.5527 110.429 44.218C110.429 46.0147 110.429 47.837 110.429 49.685C110.429 51.533 110.429 53.3553 110.429 55.152ZM94.259 27.355C92.7704 27.355 91.3844 27.7657 90.101 28.587C88.869 29.4083 87.9194 30.666 87.252 32.36C89.562 32.36 91.872 32.36 94.182 32.36C96.5434 32.36 98.879 32.36 101.189 32.36C100.573 30.6147 99.649 29.357 98.417 28.587C97.2364 27.7657 95.8504 27.355 94.259 27.355ZM113.693 57C113.693 50.4293 113.693 43.8073 113.693 37.134C113.693 30.4093 113.693 23.7617 113.693 17.191C115.797 17.191 117.928 17.191 120.084 17.191C122.24 17.191 124.344 17.191 126.398 17.191C126.398 17.5503 126.398 17.9097 126.398 18.269C126.398 18.6283 126.398 18.9877 126.398 19.347C127.989 18.2177 129.786 17.3707 131.788 16.806C133.79 16.2413 135.971 16.0873 138.333 16.344C138.333 18.3973 138.333 20.4763 138.333 22.581C138.333 24.6857 138.333 26.7647 138.333 28.818C134.277 28.2533 131.274 28.6127 129.324 29.896C127.373 31.128 126.398 33.1557 126.398 35.979C126.398 39.4183 126.398 42.909 126.398 46.451C126.398 49.993 126.398 53.5093 126.398 57C124.344 57 122.24 57 120.084 57C117.928 57 115.797 57 113.693 57ZM164.1 57C164.1 56.5893 164.1 56.2043 164.1 55.845C164.1 55.4343 164.1 55.0493 164.1 54.69C162.817 55.768 161.354 56.5893 159.711 57.154C158.12 57.77 156.4 58.078 154.552 58.078C151.934 58.078 149.47 57.5647 147.16 56.538C144.85 55.5113 142.797 54.074 141 52.226C139.255 50.3267 137.869 48.0937 136.842 45.527C135.867 42.9603 135.379 40.137 135.379 37.057C135.379 33.9257 135.867 31.0767 136.842 28.51C137.869 25.9433 139.255 23.736 141 21.888C142.797 20.04 144.85 18.6283 147.16 17.653C149.47 16.6263 151.909 16.113 154.475 16.113C156.323 16.113 158.069 16.421 159.711 17.037C161.354 17.6017 162.817 18.3973 164.1 19.424C164.1 16.344 164.1 13.2383 164.1 10.107C164.1 6.97567 164.1 3.87 164.1 0.789999C166.205 0.789999 168.335 0.789999 170.491 0.789999C172.647 0.789999 174.752 0.789999 176.805 0.789999C176.805 10.0813 176.805 19.4497 176.805 28.895C176.805 38.3403 176.805 47.7087 176.805 57C174.752 57 172.647 57 170.491 57C168.335 57 166.205 57 164.1 57ZM156.246 46.836C158.71 46.836 160.687 45.9377 162.175 44.141C163.664 42.3443 164.408 39.983 164.408 37.057C164.408 34.131 163.664 31.7953 162.175 30.05C160.687 28.2533 158.71 27.355 156.246 27.355C153.731 27.355 151.729 28.2277 150.24 29.973C148.803 31.7183 148.084 34.0797 148.084 37.057C148.084 40.0343 148.803 42.4213 150.24 44.218C151.729 45.9633 153.731 46.836 156.246 46.836ZM198.365 58.232C195.388 58.232 192.616 57.7187 190.049 56.692C187.483 55.614 185.25 54.1253 183.35 52.226C181.451 50.2753 179.962 48.0167 178.884 45.45C177.858 42.8833 177.344 40.0857 177.344 37.057C177.344 34.0283 177.858 31.2307 178.884 28.664C179.962 26.0973 181.451 23.8643 183.35 21.965C185.25 20.0657 187.483 18.6027 190.049 17.576C192.616 16.498 195.388 15.959 198.365 15.959C201.394 15.959 204.166 16.498 206.681 17.576C209.248 18.6027 211.481 20.0657 213.38 21.965C215.28 23.8643 216.743 26.0973 217.769 28.664C218.847 31.2307 219.386 34.0283 219.386 37.057C219.386 40.0857 218.847 42.8833 217.769 45.45C216.743 48.0167 215.28 50.2753 213.38 52.226C211.481 54.1253 209.248 55.614 206.681 56.692C204.166 57.7187 201.394 58.232 198.365 58.232ZM198.365 46.759C200.881 46.759 202.883 45.8607 204.371 44.064C205.911 42.216 206.681 39.8803 206.681 37.057C206.681 34.1823 205.911 31.8723 204.371 30.127C202.883 28.3303 200.881 27.432 198.365 27.432C195.85 27.432 193.822 28.3303 192.282 30.127C190.794 31.8723 190.049 34.1823 190.049 37.057C190.049 39.8803 190.794 42.216 192.282 44.064C193.822 45.8607 195.85 46.759 198.365 46.759Z" fill="#EDE8F5"/>
</svg>
