<svg width="32" height="16" viewBox="0 0 32 16" fill="none" xmlns="http://www.w3.org/2000/svg">
<path d="M8.76117 1.92584L8.76221 1.92688L10.1622 3.32692C10.1622 3.32693 10.1622 3.32693 10.1622 3.32694C10.4408 3.60552 10.8925 3.60552 11.1711 3.32692L12.5711 1.92689L12.5722 1.92583C13.4482 1.04463 14.66 0.5 16 0.5C17.34 0.5 18.5518 1.04464 19.4278 1.92584L19.4289 1.92689L20.8289 3.32692C21.1075 3.60552 21.5592 3.60552 21.8378 3.32694C21.8378 3.32693 21.8378 3.32693 21.8378 3.32692L23.2378 1.92688L23.2388 1.92583C24.1148 1.04464 25.3267 0.5 26.6667 0.5C29.3361 0.5 31.5 2.66395 31.5 5.33333C31.5 6.67529 30.9538 7.8887 30.0703 8.765L30.0688 8.76645L24.7622 14.0731L24.7612 14.0742C23.8852 14.9553 22.6733 15.5 21.3333 15.5C19.9934 15.5 18.7815 14.9554 17.9055 14.0742L17.9045 14.0732L14.1826 10.3512L13.3591 10.8757L14.4088 13.7598L14.0955 14.0731L14.0955 14.0732L14.092 14.0766L14.0843 14.0843C13.2092 14.9595 12.0015 15.5 10.6667 15.5C9.32668 15.5 8.11483 14.9554 7.23882 14.0742L7.23779 14.0731L1.93115 8.76645L1.9297 8.76501C1.04622 7.8887 0.5 6.67528 0.5 5.33333C0.5 2.66395 2.66395 0.5 5.33333 0.5C6.67332 0.5 7.88517 1.04464 8.76117 1.92584ZM14.4713 13.9317C14.4713 13.9315 14.4712 13.9313 14.4711 13.9311L14.4712 13.9314L14.4713 13.9317ZM14.5375 13.6311C14.5376 13.631 14.5378 13.6308 14.5379 13.6306L14.5379 13.6307L14.5375 13.6311Z" fill="black" stroke="black"/>
</svg>
